<svg width="24" height="24" fill="none" xmlns="http://www.w3.org/2000/svg"><path fill-rule="evenodd" clip-rule="evenodd" d="M10.906 2.003H12c3.257 0 3.643.012 4.93.07 1.189.055 1.834.253 2.264.42.57.221.975.486 1.402.913.427.427.691.833.913 1.403.167.43.366 1.075.42 2.264.058 1.286.071 1.673.071 4.929 0 3.255-.013 3.642-.071 4.928-.054 1.19-.253 1.835-.42 2.265a3.774 3.774 0 01-.913 1.401 3.772 3.772 0 01-1.402.912c-.43.168-1.075.366-2.265.42-1.286.06-1.672.072-4.929.072-3.257 0-3.643-.013-4.929-.071-1.19-.055-1.835-.254-2.265-.42a3.778 3.778 0 01-1.403-.913 3.781 3.781 0 01-.913-1.402c-.167-.43-.366-1.076-.42-2.265-.058-1.286-.07-1.672-.07-4.93s.012-3.643.07-4.929c.055-1.19.253-1.835.42-2.265a3.78 3.78 0 01.913-1.403 3.786 3.786 0 011.403-.913c.43-.167 1.076-.366 2.265-.42 1.125-.051 1.561-.066 3.835-.069v.003zm7.606 2.026a1.464 1.464 0 100 2.927 1.464 1.464 0 000-2.927zM12 5.739a6.265 6.265 0 10.001 12.53 6.265 6.265 0 000-12.53z" fill="#fff"/><path fill-rule="evenodd" clip-rule="evenodd" d="M12 7.938a4.066 4.066 0 110 8.133 4.066 4.066 0 010-8.133z" fill="#fff"/></svg>