<svg width="28" height="18" fill="none" xmlns="http://www.w3.org/2000/svg"><path d="M13.256 12.275a6.562 6.562 0 10-7.262 0 10.523 10.523 0 00-4.96 3.812.875.875 0 00.716 1.378H17.5a.875.875 0 00.715-1.38 10.523 10.523 0 00-4.959-3.81z" fill="#E7490F"/><path d="M27.132 16.086a10.523 10.523 0 00-4.96-3.81A6.563 6.563 0 0016.762.493a.875.875 0 00-.466 1.365 8.294 8.294 0 01.42 9.285.876.876 0 00.224 1.16c.332.246.651.51.956.788a.894.894 0 00.05.05 12.253 12.253 0 012.786 3.819.875.875 0 00.793.504h4.892a.877.877 0 00.715-1.38z" fill="#E7490F"/></svg>