<svg width="28" height="28" fill="none" xmlns="http://www.w3.org/2000/svg"><path d="M14 17.938a4.812 4.812 0 100-9.625 4.812 4.812 0 000 9.624z" fill="#E7490F"/><path d="M22.75 3.5H5.25A1.752 1.752 0 003.5 5.25v17.5a1.752 1.752 0 001.75 1.75h17.5a1.752 1.752 0 001.75-1.75V5.25a1.752 1.752 0 00-1.75-1.75zm0 19.25h-.402a8.798 8.798 0 00-2.851-4.183 8.65 8.65 0 00-.982-.686 6.545 6.545 0 01-9.03 0 8.656 8.656 0 00-.982.686 8.798 8.798 0 00-2.851 4.183H5.25V5.25h17.5l.001 17.5h-.001z" fill="#E7490F"/></svg>