<svg viewBox="0 0 1072 512" xmlns="http://www.w3.org/2000/svg" xmlns:xlink="http://www.w3.org/1999/xlink"><style>:root&gt;svg{display:none}:root&gt;svg:target{display:block}</style><svg viewBox="0 0 20 20" id="arrow" xmlns="http://www.w3.org/2000/svg"><path d="M14 5l-5 5 5 5-1 2-7-7 7-7 1 2z"/></svg><svg viewBox="0 0 37 23" id="arrow-up" xmlns="http://www.w3.org/2000/svg"><path d="M18.5 22.046a2.584 2.584 0 01-1.832-.759L.76 5.377a2.591 2.591 0 113.664-3.664L18.5 15.791 32.577 1.714a2.591 2.591 0 013.664 3.664l-15.91 15.91a2.584 2.584 0 01-1.831.758z"/></svg><svg viewBox="0 0 28 28" id="burger-btn" xmlns="http://www.w3.org/2000/svg"><path d="M6.5 9a2.5 2.5 0 100-5 2.5 2.5 0 000 5zm8 0a2.5 2.5 0 100-5 2.5 2.5 0 000 5zm8 0a2.5 2.5 0 100-5 2.5 2.5 0 000 5zm-16 8a2.5 2.5 0 100-5 2.5 2.5 0 000 5zm8 0a2.5 2.5 0 100-5 2.5 2.5 0 000 5zm8 0a2.5 2.5 0 100-5 2.5 2.5 0 000 5zm-16 8a2.5 2.5 0 100-5 2.5 2.5 0 000 5zm8 0a2.5 2.5 0 100-5 2.5 2.5 0 000 5zm8 0a2.5 2.5 0 100-5 2.5 2.5 0 000 5z"/></svg><svg viewBox="0 0 24 24" id="calendarblank" xmlns="http://www.w3.org/2000/svg"><path d="M19.499 3h-2.25v-.75a.75.75 0 10-1.5 0V3h-7.5v-.75a.75.75 0 10-1.5 0V3h-2.25a1.501 1.501 0 00-1.5 1.5v15a1.501 1.501 0 001.5 1.5h15a1.501 1.501 0 001.5-1.5v-15a1.501 1.501 0 00-1.5-1.5zm0 4.5h-15v-3h2.25v.75a.75.75 0 001.5 0V4.5h7.5v.75a.75.75 0 101.5 0V4.5h2.25v3z"/></svg><svg viewBox="0 0 18 18" id="close" xmlns="http://www.w3.org/2000/svg"><path d="M1 1l16 16M1 17L17 1"/></svg><svg viewBox="0 0 24 24" id="instagram" xmlns="http://www.w3.org/2000/svg"><path fill-rule="evenodd" clip-rule="evenodd" d="M10.906 2.003H12c3.257 0 3.643.012 4.93.07 1.189.055 1.834.253 2.264.42.57.221.975.486 1.402.913.427.427.691.833.913 1.403.167.43.366 1.075.42 2.264.058 1.286.071 1.673.071 4.929 0 3.255-.013 3.642-.071 4.928-.054 1.19-.253 1.835-.42 2.265a3.774 3.774 0 01-.913 1.401 3.772 3.772 0 01-1.402.912c-.43.168-1.075.366-2.265.42-1.286.06-1.672.072-4.929.072-3.257 0-3.643-.013-4.929-.071-1.19-.055-1.835-.254-2.265-.42a3.778 3.778 0 01-1.403-.913 3.781 3.781 0 01-.913-1.402c-.167-.43-.366-1.076-.42-2.265-.058-1.286-.07-1.672-.07-4.93s.012-3.643.07-4.929c.055-1.19.253-1.835.42-2.265a3.78 3.78 0 01.913-1.403 3.786 3.786 0 011.403-.913c.43-.167 1.076-.366 2.265-.42 1.125-.051 1.561-.066 3.835-.069v.003zm7.606 2.026a1.464 1.464 0 100 2.927 1.464 1.464 0 000-2.927zM12 5.739a6.265 6.265 0 10.001 12.53 6.265 6.265 0 000-12.53z"/><path fill-rule="evenodd" clip-rule="evenodd" d="M12 7.938a4.066 4.066 0 110 8.133 4.066 4.066 0 010-8.133z"/></svg><svg viewBox="0 0 24 24" id="interior" xmlns="http://www.w3.org/2000/svg"><path fill-rule="evenodd" clip-rule="evenodd" d="M.934.167a.934.934 0 00-.858 1.301l4.768 11.126-1.975 2.633-.608-.076a1.908 1.908 0 00-2.144 1.895v2.952a3.712 3.712 0 003.71 3.71h16.582a3.13 3.13 0 003.133-3.132 3.14 3.14 0 00-2.747-3.11l-12.5-1.562-3.377-7.877h7.456a.934.934 0 100-1.868H4.118L2.35 2.034h2.087a.934.934 0 100-1.867H.934zm4.07 15.326l.689-.918.454 1.061-1.143-.143z"/></svg><svg viewBox="0 0 736 238" id="line1" xmlns="http://www.w3.org/2000/svg"><path d="M734.771 162.629C715.577 106.231 631.974-5.003 451.119 1.253 225.05 9.073 83.579 179.691-129.694 222.346-287.105 253.828-681.359 249.36-847 57.415"/></svg><svg viewBox="0 0 894 238" id="line2" xmlns="http://www.w3.org/2000/svg"><path d="M-689 162.629C-669.805 106.231-586.203-5.003-405.347 1.253c226.069 7.82 367.54 178.438 580.812 221.093C332.876 253.828 727.13 249.36 892.772 57.415"/></svg><svg viewBox="0 0 1072 397" id="line3" xmlns="http://www.w3.org/2000/svg"><path d="M1.096 560.42c2.007-59.542 49.745-190.246 224.637-236.726 218.616-58.1 403.5 64.138 619.975 43.087C1005.48 351.243 1381.49 232.592 1484.32.847"/></svg><svg viewBox="0 0 24 24" id="location" xmlns="http://www.w3.org/2000/svg"><path d="M11.999 1.5a8.26 8.26 0 00-8.25 8.25c0 7.059 7.5 12.39 7.82 12.614a.752.752 0 00.86 0c.32-.223 7.82-5.555 7.82-12.614a8.26 8.26 0 00-8.25-8.25zm0 5.25a3 3 0 110 6 3 3 0 010-6z"/></svg><svg viewBox="0 0 18 22" id="location-red" xmlns="http://www.w3.org/2000/svg"><path d="M8.999.5a8.26 8.26 0 00-8.25 8.25c0 7.059 7.5 12.39 7.82 12.614a.752.752 0 00.86 0c.32-.223 7.82-5.555 7.82-12.614A8.26 8.26 0 008.999.5zm0 5.25a3 3 0 110 6 3 3 0 010-6z"/></svg><svg viewBox="0 0 24 25" id="phone" xmlns="http://www.w3.org/2000/svg"><path d="M19.223 15.245l-3.753-1.608a1.28 1.28 0 00-1.217.112l-2.007 1.337a6.133 6.133 0 01-2.82-2.808l1.333-2.037a1.28 1.28 0 00.105-1.207l-1.61-3.757A1.284 1.284 0 007.92 4.51 4.493 4.493 0 004 8.961C4 15.324 9.176 20.5 15.539 20.5a4.493 4.493 0 004.452-3.92 1.285 1.285 0 00-.768-1.334z"/></svg><svg viewBox="0 0 16 16" id="phone-red" xmlns="http://www.w3.org/2000/svg"><path d="M15.223 10.745L11.47 9.137a1.279 1.279 0 00-1.217.112l-2.006 1.337a6.133 6.133 0 01-2.822-2.808L6.76 5.74a1.28 1.28 0 00.105-1.207L5.254.777A1.284 1.284 0 003.92.01 4.493 4.493 0 000 4.461C0 10.824 5.176 16 11.539 16a4.493 4.493 0 004.452-3.92 1.285 1.285 0 00-.768-1.335z"/></svg><svg viewBox="0 0 28 18" id="programs-user" xmlns="http://www.w3.org/2000/svg"><path d="M13.256 12.275a6.562 6.562 0 10-7.262 0 10.523 10.523 0 00-4.96 3.812.875.875 0 00.716 1.378H17.5a.875.875 0 00.715-1.38 10.523 10.523 0 00-4.959-3.81z"/><path d="M27.132 16.086a10.523 10.523 0 00-4.96-3.81A6.563 6.563 0 0016.762.493a.875.875 0 00-.466 1.365 8.294 8.294 0 01.42 9.285.876.876 0 00.224 1.16c.332.246.651.51.956.788a.894.894 0 00.05.05 12.253 12.253 0 012.786 3.819.875.875 0 00.793.504h4.892a.877.877 0 00.715-1.38z"/></svg><svg viewBox="0 0 28 28" id="trainers-user" xmlns="http://www.w3.org/2000/svg"><path d="M14 17.938a4.812 4.812 0 100-9.625 4.812 4.812 0 000 9.624z"/><path d="M22.75 3.5H5.25A1.752 1.752 0 003.5 5.25v17.5a1.752 1.752 0 001.75 1.75h17.5a1.752 1.752 0 001.75-1.75V5.25a1.752 1.752 0 00-1.75-1.75zm0 19.25h-.402a8.798 8.798 0 00-2.851-4.183 8.65 8.65 0 00-.982-.686 6.545 6.545 0 01-9.03 0 8.656 8.656 0 00-.982.686 8.798 8.798 0 00-2.851 4.183H5.25V5.25h17.5l.001 17.5h-.001z"/></svg><svg viewBox="0 0 512 512" id="uparrow" xmlns="http://www.w3.org/2000/svg"><path d="M468.631 212.631l-33.262 33.27L256.01 66.524 76.631 245.901l-33.262-33.27L256.01 0z"/><path d="M468.631 345.679l-33.262 33.27L256.01 199.58 76.631 378.949l-33.262-33.27L256.01 133.051z"/><path d="M468.631 478.735L435.369 512 256.01 332.631 76.631 512l-33.262-33.265L256.01 266.099z"/></svg></svg>