<?xml version="1.0" encoding="utf-8"?><svg viewBox="0 0 1072 397" xmlns="http://www.w3.org/2000/svg" xmlns:xlink="http://www.w3.org/1999/xlink"><style>:root>svg{display:none}:root>svg:target{display:block}</style><svg viewBox="0 0 20 20" id="arrow" xmlns="http://www.w3.org/2000/svg"><path d="M14 5l-5 5 5 5-1 2-7-7 7-7 1 2z"/></svg><svg viewBox="0 0 24 24" id="calendarblank" xmlns="http://www.w3.org/2000/svg"><path d="M19.499 3h-2.25v-.75a.75.75 0 10-1.5 0V3h-7.5v-.75a.75.75 0 10-1.5 0V3h-2.25a1.501 1.501 0 00-1.5 1.5v15a1.501 1.501 0 001.5 1.5h15a1.501 1.501 0 001.5-1.5v-15a1.501 1.501 0 00-1.5-1.5zm0 4.5h-15v-3h2.25v.75a.75.75 0 001.5 0V4.5h7.5v.75a.75.75 0 101.5 0V4.5h2.25v3z"/></svg><svg viewBox="0 0 24 24" id="instagram" xmlns="http://www.w3.org/2000/svg"><path fill-rule="evenodd" clip-rule="evenodd" d="M10.906 2.003H12c3.257 0 3.643.012 4.93.07 1.189.055 1.834.253 2.264.42.57.221.975.486 1.402.913.427.427.691.833.913 1.403.167.43.366 1.075.42 2.264.058 1.286.071 1.673.071 4.929 0 3.255-.013 3.642-.071 4.928-.054 1.19-.253 1.835-.42 2.265-.221.569-.486.974-.913 1.401a3.772 3.772 0 01-1.402.912c-.43.168-1.075.366-2.265.42-1.286.06-1.672.072-4.929.072-3.257 0-3.643-.013-4.929-.071-1.19-.055-1.835-.254-2.265-.42a3.778 3.778 0 01-1.403-.913 3.781 3.781 0 01-.913-1.402c-.167-.43-.366-1.076-.42-2.265-.058-1.286-.07-1.672-.07-4.93s.012-3.643.07-4.929c.055-1.19.253-1.835.42-2.265a3.78 3.78 0 01.913-1.403 3.786 3.786 0 011.403-.913c.43-.167 1.076-.366 2.265-.42 1.125-.051 1.561-.066 3.835-.069v.003zm7.606 2.026a1.464 1.464 0 100 2.927 1.464 1.464 0 000-2.927zM12 5.739a6.265 6.265 0 10.001 12.53 6.265 6.265 0 000-12.53z"/><path fill-rule="evenodd" clip-rule="evenodd" d="M12 7.938a4.066 4.066 0 110 8.133 4.066 4.066 0 010-8.133z"/></svg><svg viewBox="0 0 736 238" id="line1" xmlns="http://www.w3.org/2000/svg"><path d="M734.771 162.629C715.577 106.231 631.974-5.003 451.119 1.253 225.05 9.073 83.579 179.691-129.694 222.346-287.105 253.828-681.359 249.36-847 57.415"/></svg><svg viewBox="0 0 894 238" id="line2" xmlns="http://www.w3.org/2000/svg"><path d="M-689 162.629C-669.805 106.231-586.203-5.003-405.347 1.253c226.069 7.82 367.54 178.438 580.812 221.093C332.876 253.828 727.13 249.36 892.772 57.415"/></svg><svg viewBox="0 0 1072 397" id="line3" xmlns="http://www.w3.org/2000/svg"><path d="M1.096 560.42c2.007-59.542 49.745-190.246 224.637-236.726 218.616-58.1 403.5 64.138 619.975 43.087C1005.48 351.243 1381.49 232.592 1484.32.847"/></svg><svg viewBox="0 0 24 24" id="location" xmlns="http://www.w3.org/2000/svg"><path d="M11.999 1.5a8.26 8.26 0 00-8.25 8.25c0 7.059 7.5 12.39 7.82 12.614a.752.752 0 00.86 0c.32-.223 7.82-5.555 7.82-12.614a8.26 8.26 0 00-8.25-8.25zm0 5.25a3 3 0 110 6 3 3 0 010-6z"/></svg><svg viewBox="0 0 24 25" id="phone" xmlns="http://www.w3.org/2000/svg"><path d="M19.223 15.245l-3.753-1.608a1.28 1.28 0 00-1.217.112l-2.007 1.337a6.133 6.133 0 01-2.82-2.808l1.333-2.037a1.28 1.28 0 00.105-1.207l-1.61-3.757A1.284 1.284 0 007.92 4.51 4.493 4.493 0 004 8.961C4 15.324 9.176 20.5 15.539 20.5a4.493 4.493 0 004.452-3.92 1.285 1.285 0 00-.768-1.334z"/></svg></svg>