<svg width="24" height="24" viewBox="0 0 24 24" fill="none" xmlns="http://www.w3.org/2000/svg">
<path fill-rule="evenodd" clip-rule="evenodd" d="M0.933894 0.166504C0.619973 0.166504 0.327054 0.324222 0.154244 0.586296C-0.018567 0.84837 -0.0481465 1.17973 0.075513 1.46827L4.84359 12.5938L2.86893 15.2267L2.26139 15.1508C1.12502 15.0078 0.116777 15.8951 0.116777 17.0456V19.9983C0.116777 22.0458 1.77918 23.7082 3.82666 23.7082H20.4094C22.141 23.7082 23.5419 22.3073 23.5419 20.5757C23.5419 18.9962 22.362 17.6647 20.7955 17.4662L8.29453 15.9045L4.91843 8.02687H12.3738C12.8896 8.02687 13.3077 7.60876 13.3077 7.09298C13.3077 6.57721 12.8896 6.15909 12.3738 6.15909H4.11795L2.35018 2.03429H4.43676C4.95254 2.03429 5.37065 1.61617 5.37065 1.10039C5.37065 0.584621 4.95254 0.166504 4.43676 0.166504H0.933894ZM5.00365 15.4933L5.69258 14.5748L6.14749 15.6362L5.00365 15.4933Z" fill="#E7490F"/>
</svg>
