<svg width="18" height="22" viewBox="0 0 18 22" fill="none" xmlns="http://www.w3.org/2000/svg">
<path d="M8.99902 0.499512C6.81178 0.502107 4.71487 1.37213 3.16826 2.91875C1.62165 4.46536 0.751619 6.56227 0.749023 8.74951C0.749023 15.8086 8.24902 21.1406 8.56836 21.364C8.69465 21.4522 8.84498 21.4995 8.99902 21.4995C9.15307 21.4995 9.3034 21.4522 9.42969 21.364C9.74902 21.1406 17.249 15.8086 17.249 8.74951C17.2464 6.56227 16.3764 4.46536 14.8298 2.91875C13.2832 1.37213 11.1863 0.502107 8.99902 0.499512ZM8.99957 5.74978C9.59292 5.74978 10.1729 5.92573 10.6663 6.25537C11.1596 6.58502 11.5441 7.05355 11.7712 7.60173C11.9983 8.14991 12.0577 8.75311 11.9419 9.33505C11.8262 9.917 11.5405 10.4515 11.1209 10.8711C10.7013 11.2907 10.1668 11.5764 9.58484 11.6921C9.0029 11.8079 8.3997 11.7485 7.85152 11.5214C7.30334 11.2944 6.83481 10.9098 6.50516 10.4165C6.17552 9.92315 5.99957 9.34313 5.99957 8.74978C5.99956 8.35581 6.07715 7.9657 6.22791 7.60172C6.37867 7.23774 6.59965 6.90702 6.87823 6.62844C7.15681 6.34986 7.48753 6.12888 7.85151 5.97812C8.21549 5.82736 8.6056 5.74977 8.99957 5.74978Z" fill="#E7490F"/>
</svg>
