<svg width="28" height="18" viewBox="0 0 28 18" fill="none" xmlns="http://www.w3.org/2000/svg">
<path d="M13.2561 12.2755C14.4301 11.4957 15.3219 10.3586 15.7994 9.03252C16.2769 7.70647 16.3148 6.26191 15.9075 4.91263C15.5002 3.56335 14.6694 2.38105 13.5379 1.54069C12.4064 0.700336 11.0345 0.246582 9.62504 0.246582C8.21563 0.246582 6.84366 0.700336 5.71218 1.54069C4.5807 2.38105 3.74983 3.56335 3.34254 4.91263C2.93524 6.26191 2.97316 7.70647 3.45069 9.03252C3.92821 10.3586 4.81997 11.4957 5.99398 12.2755C3.99264 13.0138 2.26291 14.3428 1.03409 16.0865C0.941832 16.2175 0.88734 16.3714 0.876556 16.5313C0.865772 16.6912 0.899112 16.851 0.972937 16.9933C1.04676 17.1355 1.15824 17.2548 1.2952 17.338C1.43216 17.4212 1.58935 17.4652 1.74962 17.4652L17.5001 17.4646C17.6604 17.4646 17.8176 17.4206 17.9545 17.3374C18.0915 17.2541 18.2029 17.1349 18.2767 16.9926C18.3506 16.8504 18.3839 16.6906 18.3731 16.5307C18.3623 16.3708 18.3077 16.2169 18.2155 16.0859C16.9867 14.3425 15.2572 13.0137 13.2561 12.2755Z" fill="#E7490F"/>
<path d="M27.1319 16.0859C25.9031 14.3425 24.1736 13.0137 22.1725 12.2755C23.4735 11.4094 24.4228 10.1075 24.8494 8.60385C25.276 7.10025 25.1519 5.49376 24.4996 4.07346C23.8472 2.65316 22.7094 1.51232 21.2908 0.856219C19.8722 0.200123 18.2661 0.0718558 16.7614 0.494498C16.6248 0.532917 16.4995 0.603984 16.3965 0.70157C16.2935 0.799157 16.2158 0.920336 16.17 1.05466C16.1242 1.18898 16.1118 1.33242 16.1339 1.4726C16.1559 1.61279 16.2117 1.74551 16.2964 1.85934C17.2855 3.18802 17.8542 4.78244 17.929 6.43718C18.0039 8.09193 17.5816 9.73118 16.7165 11.1438C16.6023 11.3301 16.5619 11.5524 16.6032 11.7669C16.6446 11.9815 16.7648 12.1728 16.9402 12.3033C17.2719 12.5502 17.5911 12.8135 17.8965 13.0924C17.9123 13.1095 17.9282 13.1266 17.9456 13.1427C19.1135 14.2224 20.06 15.5191 20.7323 16.9605C20.8028 17.1113 20.9148 17.239 21.0553 17.3284C21.1957 17.4178 21.3588 17.4653 21.5253 17.4652L26.4166 17.4647C26.5768 17.4646 26.734 17.4206 26.871 17.3374C27.0079 17.2541 27.1194 17.1349 27.1932 16.9926C27.267 16.8503 27.3003 16.6906 27.2895 16.5307C27.2787 16.3708 27.2242 16.2169 27.1319 16.0859L27.1319 16.0859Z" fill="#E7490F"/>
</svg>
